<?xml version="1.0" standalone="no"?><!DOCTYPE svg PUBLIC "-//W3C//DTD SVG 1.1//EN" "http://www.w3.org/Graphics/SVG/1.1/DTD/svg11.dtd"><svg t="1703338508788" class="icon" viewBox="0 0 1024 1024" version="1.1" xmlns="http://www.w3.org/2000/svg" p-id="885" xmlns:xlink="http://www.w3.org/1999/xlink" width="200" height="200"><path d="M768 708.266667l179.2 179.2-59.733333 59.733333L708.266667 768c-68.266667 51.2-153.6 85.333333-238.933334 85.333333C256 853.333333 85.333333 682.666667 85.333333 469.333333S256 85.333333 469.333333 85.333333 853.333333 256 853.333333 469.333333c0 85.333333-25.6 170.666667-85.333333 238.933334z m-85.333333-34.133334c51.2-59.733333 85.333333-128 85.333333-204.8C768 307.2 631.466667 170.666667 469.333333 170.666667S170.666667 307.2 170.666667 469.333333 307.2 768 469.333333 768c76.8 0 153.6-34.133333 213.333334-93.866667z" p-id="886"></path></svg>